<mxfile host="65bd71144e">
    <diagram id="7s3nho6bFjA9VcV9n4uL" name="Page-1">
        <mxGraphModel dx="1717" dy="752" grid="1" gridSize="10" guides="1" tooltips="1" connect="1" arrows="1" fold="1" page="1" pageScale="1" pageWidth="850" pageHeight="1100" math="0" shadow="0">
            <root>
                <mxCell id="0"/>
                <mxCell id="1" parent="0"/>
                <mxCell id="72" value="" style="edgeStyle=none;html=1;" parent="1" source="4" target="6" edge="1">
                    <mxGeometry relative="1" as="geometry">
                        <mxPoint x="70" y="250" as="targetPoint"/>
                    </mxGeometry>
                </mxCell>
                <mxCell id="73" value="" style="edgeStyle=none;html=1;" parent="1" source="4" target="43" edge="1">
                    <mxGeometry relative="1" as="geometry"/>
                </mxCell>
                <mxCell id="74" value="" style="edgeStyle=none;html=1;entryX=0;entryY=0.25;entryDx=0;entryDy=0;" parent="1" source="4" target="58" edge="1">
                    <mxGeometry relative="1" as="geometry">
                        <mxPoint x="70" y="490" as="targetPoint"/>
                    </mxGeometry>
                </mxCell>
                <mxCell id="4" value="" style="image;html=1;image=img/lib/clip_art/computers/MacBook_128x128.png" parent="1" vertex="1">
                    <mxGeometry x="20" y="300" width="80" height="80" as="geometry"/>
                </mxCell>
                <mxCell id="29" value="" style="edgeStyle=none;html=1;" parent="1" source="6" target="10" edge="1">
                    <mxGeometry relative="1" as="geometry">
                        <mxPoint x="410" y="90" as="targetPoint"/>
                    </mxGeometry>
                </mxCell>
                <mxCell id="6" value="Sun-01-A" style="image;html=1;image=img/lib/clip_art/computers/Server_128x128.png" parent="1" vertex="1">
                    <mxGeometry x="320" y="30" width="90" height="80" as="geometry"/>
                </mxCell>
                <mxCell id="36" value="" style="edgeStyle=none;html=1;" parent="1" source="10" target="13" edge="1">
                    <mxGeometry relative="1" as="geometry"/>
                </mxCell>
                <mxCell id="10" value="Mercury-01-A" style="image;html=1;image=img/lib/clip_art/computers/Virtual_Machine_128x128.png" parent="1" vertex="1">
                    <mxGeometry x="535" y="40" width="60" height="50" as="geometry"/>
                </mxCell>
                <mxCell id="34" value="" style="edgeStyle=none;html=1;" parent="1" source="13" target="10" edge="1">
                    <mxGeometry relative="1" as="geometry"/>
                </mxCell>
                <mxCell id="35" value="" style="edgeStyle=none;html=1;" parent="1" source="13" target="24" edge="1">
                    <mxGeometry relative="1" as="geometry"/>
                </mxCell>
                <mxCell id="13" value="Venus-01-A" style="image;html=1;image=img/lib/clip_art/computers/Virtual_Machine_128x128.png" parent="1" vertex="1">
                    <mxGeometry x="650" y="40" width="70" height="50" as="geometry"/>
                </mxCell>
                <mxCell id="31" value="" style="edgeStyle=none;html=1;" parent="1" source="24" target="26" edge="1">
                    <mxGeometry relative="1" as="geometry"/>
                </mxCell>
                <mxCell id="24" value="Mars-01-A" style="image;html=1;image=img/lib/clip_art/computers/Virtual_Machine_128x128.png" parent="1" vertex="1">
                    <mxGeometry x="760" y="40" width="70" height="50" as="geometry"/>
                </mxCell>
                <mxCell id="33" value="" style="edgeStyle=none;html=1;" parent="1" source="25" target="27" edge="1">
                    <mxGeometry relative="1" as="geometry"/>
                </mxCell>
                <mxCell id="25" value="Earth-01-A" style="image;html=1;image=img/lib/clip_art/computers/Virtual_Machine_128x128.png" parent="1" vertex="1">
                    <mxGeometry x="650" y="160" width="70" height="50" as="geometry"/>
                </mxCell>
                <mxCell id="32" value="" style="edgeStyle=none;html=1;" parent="1" source="26" target="25" edge="1">
                    <mxGeometry relative="1" as="geometry"/>
                </mxCell>
                <mxCell id="26" value="Jupiter-01-A" style="image;html=1;image=img/lib/clip_art/computers/Virtual_Machine_128x128.png" parent="1" vertex="1">
                    <mxGeometry x="760" y="160" width="70" height="50" as="geometry"/>
                </mxCell>
                <mxCell id="28" value="" style="edgeStyle=none;html=1;" parent="1" source="27" target="10" edge="1">
                    <mxGeometry relative="1" as="geometry"/>
                </mxCell>
                <mxCell id="27" value="Saturn-01-A" style="image;html=1;image=img/lib/clip_art/computers/Virtual_Machine_128x128.png" parent="1" vertex="1">
                    <mxGeometry x="530" y="160" width="70" height="50" as="geometry"/>
                </mxCell>
                <mxCell id="42" value="" style="edgeStyle=none;html=1;" parent="1" source="43" target="45" edge="1">
                    <mxGeometry relative="1" as="geometry">
                        <mxPoint x="420" y="320" as="targetPoint"/>
                    </mxGeometry>
                </mxCell>
                <mxCell id="43" value="Sun-02-B" style="image;html=1;image=img/lib/clip_art/computers/Server_128x128.png" parent="1" vertex="1">
                    <mxGeometry x="320" y="255" width="90" height="80" as="geometry"/>
                </mxCell>
                <mxCell id="44" value="" style="edgeStyle=none;html=1;" parent="1" source="45" target="48" edge="1">
                    <mxGeometry relative="1" as="geometry"/>
                </mxCell>
                <mxCell id="45" value="Mercury-02-B" style="image;html=1;image=img/lib/clip_art/computers/Virtual_Machine_128x128.png" parent="1" vertex="1">
                    <mxGeometry x="545" y="270" width="60" height="50" as="geometry"/>
                </mxCell>
                <mxCell id="46" value="" style="edgeStyle=none;html=1;" parent="1" source="48" target="45" edge="1">
                    <mxGeometry relative="1" as="geometry"/>
                </mxCell>
                <mxCell id="47" value="" style="edgeStyle=none;html=1;" parent="1" source="48" target="50" edge="1">
                    <mxGeometry relative="1" as="geometry"/>
                </mxCell>
                <mxCell id="48" value="Venus-02-B" style="image;html=1;image=img/lib/clip_art/computers/Virtual_Machine_128x128.png" parent="1" vertex="1">
                    <mxGeometry x="660" y="270" width="70" height="50" as="geometry"/>
                </mxCell>
                <mxCell id="49" value="" style="edgeStyle=none;html=1;" parent="1" source="50" target="54" edge="1">
                    <mxGeometry relative="1" as="geometry"/>
                </mxCell>
                <mxCell id="50" value="Mars-02-B" style="image;html=1;image=img/lib/clip_art/computers/Virtual_Machine_128x128.png" parent="1" vertex="1">
                    <mxGeometry x="770" y="270" width="70" height="50" as="geometry"/>
                </mxCell>
                <mxCell id="51" value="" style="edgeStyle=none;html=1;" parent="1" source="52" target="56" edge="1">
                    <mxGeometry relative="1" as="geometry"/>
                </mxCell>
                <mxCell id="52" value="Earth-02-B" style="image;html=1;image=img/lib/clip_art/computers/Virtual_Machine_128x128.png" parent="1" vertex="1">
                    <mxGeometry x="660" y="390" width="70" height="50" as="geometry"/>
                </mxCell>
                <mxCell id="53" value="" style="edgeStyle=none;html=1;" parent="1" source="54" target="52" edge="1">
                    <mxGeometry relative="1" as="geometry"/>
                </mxCell>
                <mxCell id="54" value="Jupiter-02-B" style="image;html=1;image=img/lib/clip_art/computers/Virtual_Machine_128x128.png" parent="1" vertex="1">
                    <mxGeometry x="770" y="390" width="70" height="50" as="geometry"/>
                </mxCell>
                <mxCell id="55" value="" style="edgeStyle=none;html=1;" parent="1" source="56" target="45" edge="1">
                    <mxGeometry relative="1" as="geometry"/>
                </mxCell>
                <mxCell id="56" value="Saturn-02-B" style="image;html=1;image=img/lib/clip_art/computers/Virtual_Machine_128x128.png" parent="1" vertex="1">
                    <mxGeometry x="540" y="390" width="70" height="50" as="geometry"/>
                </mxCell>
                <mxCell id="57" value="" style="edgeStyle=none;html=1;" parent="1" source="58" target="60" edge="1">
                    <mxGeometry relative="1" as="geometry">
                        <mxPoint x="420" y="570" as="targetPoint"/>
                    </mxGeometry>
                </mxCell>
                <mxCell id="58" value="Sun-03-C" style="image;html=1;image=img/lib/clip_art/computers/Server_128x128.png" parent="1" vertex="1">
                    <mxGeometry x="335" y="505" width="90" height="80" as="geometry"/>
                </mxCell>
                <mxCell id="59" value="" style="edgeStyle=none;html=1;" parent="1" source="60" target="63" edge="1">
                    <mxGeometry relative="1" as="geometry"/>
                </mxCell>
                <mxCell id="60" value="Mercury-03-C" style="image;html=1;image=img/lib/clip_art/computers/Virtual_Machine_128x128.png" parent="1" vertex="1">
                    <mxGeometry x="545" y="520" width="60" height="50" as="geometry"/>
                </mxCell>
                <mxCell id="61" value="" style="edgeStyle=none;html=1;" parent="1" source="63" target="60" edge="1">
                    <mxGeometry relative="1" as="geometry"/>
                </mxCell>
                <mxCell id="62" value="" style="edgeStyle=none;html=1;" parent="1" source="63" target="65" edge="1">
                    <mxGeometry relative="1" as="geometry"/>
                </mxCell>
                <mxCell id="63" value="Venus-03-C" style="image;html=1;image=img/lib/clip_art/computers/Virtual_Machine_128x128.png" parent="1" vertex="1">
                    <mxGeometry x="661" y="520" width="70" height="50" as="geometry"/>
                </mxCell>
                <mxCell id="64" value="" style="edgeStyle=none;html=1;" parent="1" source="65" target="69" edge="1">
                    <mxGeometry relative="1" as="geometry"/>
                </mxCell>
                <mxCell id="65" value="Mars-03-C" style="image;html=1;image=img/lib/clip_art/computers/Virtual_Machine_128x128.png" parent="1" vertex="1">
                    <mxGeometry x="770" y="520" width="70" height="50" as="geometry"/>
                </mxCell>
                <mxCell id="66" value="" style="edgeStyle=none;html=1;" parent="1" source="67" target="71" edge="1">
                    <mxGeometry relative="1" as="geometry"/>
                </mxCell>
                <mxCell id="67" value="Earth-03-C" style="image;html=1;image=img/lib/clip_art/computers/Virtual_Machine_128x128.png" parent="1" vertex="1">
                    <mxGeometry x="660" y="640" width="70" height="50" as="geometry"/>
                </mxCell>
                <mxCell id="68" value="" style="edgeStyle=none;html=1;" parent="1" source="69" target="67" edge="1">
                    <mxGeometry relative="1" as="geometry"/>
                </mxCell>
                <mxCell id="69" value="Jupiter-03-C" style="image;html=1;image=img/lib/clip_art/computers/Virtual_Machine_128x128.png" parent="1" vertex="1">
                    <mxGeometry x="770" y="640" width="70" height="50" as="geometry"/>
                </mxCell>
                <mxCell id="70" value="" style="edgeStyle=none;html=1;" parent="1" source="71" target="60" edge="1">
                    <mxGeometry relative="1" as="geometry"/>
                </mxCell>
                <mxCell id="71" value="Saturn-03-C" style="image;html=1;image=img/lib/clip_art/computers/Virtual_Machine_128x128.png" parent="1" vertex="1">
                    <mxGeometry x="540" y="640" width="70" height="50" as="geometry"/>
                </mxCell>
            </root>
        </mxGraphModel>
    </diagram>
</mxfile>